<?xml version="1.0" standalone="no"?>
<!DOCTYPE svg PUBLIC "-//W3C//DTD SVG 20010904//EN"
 "http://www.w3.org/TR/2001/REC-SVG-20010904/DTD/svg10.dtd">
<svg version="1.0" xmlns="http://www.w3.org/2000/svg"
 width="1080.000000pt" height="1080.000000pt" viewBox="0 0 1080.000000 1080.000000"
 preserveAspectRatio="xMidYMid meet">
<metadata>
Created by potrace 1.14, written by Peter Selinger 2001-2017
</metadata>
<g transform="translate(0.000000,1080.000000) scale(0.100000,-0.100000)"
fill="#000000" stroke="none">
<path d="M3819 7256 c-2 -2 -56 -7 -119 -11 -63 -3 -117 -8 -120 -10 -3 -2
-32 -6 -65 -9 -33 -3 -69 -7 -80 -10 -32 -6 -98 -18 -125 -22 -50 -9 -187 -46
-260 -71 -143 -48 -393 -184 -506 -276 -16 -13 -79 -65 -183 -152 -53 -44
-140 -125 -240 -223 -315 -308 -1711 -1696 -1711 -1702 0 -3 315 -6 700 -5
l699 0 227 220 c125 121 253 245 284 275 59 57 425 410 541 522 91 87 234 220
256 238 96 80 201 149 283 187 53 24 190 69 240 77 64 11 182 27 239 33 31 4
902 8 1936 10 l1880 4 310 307 c171 169 380 378 465 465 l155 157 -2401 0
c-1321 0 -2403 -2 -2405 -4z"/>
<path d="M7658 6027 c-678 -678 -1238 -1240 -1245 -1248 -11 -13 76 -15 737
-15 l749 0 1248 1248 1248 1248 -752 0 -752 0 -1233 -1233z"/>
<path d="M4137 6174 c-1 -1 -54 -5 -117 -8 -170 -10 -248 -19 -330 -37 -25 -6
-52 -12 -61 -14 -139 -29 -325 -131 -454 -250 -33 -30 -1047 -1039 -1083
-1077 l-22 -25 654 1 655 1 194 194 c107 106 222 213 256 236 54 37 151 77
219 90 85 16 277 18 1385 19 l1237 1 430 430 c237 236 430 432 430 435 0 5
-3388 9 -3393 4z"/>
<path d="M2702 4499 c-280 -61 -439 -233 -470 -509 -11 -96 -6 -382 8 -443 29
-130 94 -245 177 -314 49 -41 143 -98 143 -87 0 4 6 1 14 -5 7 -6 49 -21 92
-33 73 -20 108 -22 444 -26 l365 -4 0 161 0 161 -290 1 c-375 1 -397 4 -472
58 -31 23 -44 41 -61 92 -19 58 -21 82 -18 264 1 124 7 215 15 238 16 49 75
108 126 126 36 13 295 22 615 21 l76 0 -1 161 0 160 -340 -2 c-285 -2 -353 -5
-423 -20z"/>
<path d="M3665 3803 l0 -718 193 -3 192 -2 0 280 0 280 340 0 340 -1 0 -279 0
-280 190 0 190 0 0 720 0 720 -190 0 -190 0 0 -270 0 -270 -340 0 -340 0 0
270 0 270 -193 0 -192 0 0 -717z"/>
<path d="M5384 3800 l0 -720 193 0 193 0 0 720 0 720 -193 0 -193 0 0 -720z"/>
<path d="M6034 3800 l0 -720 558 0 558 0 0 160 0 160 -365 0 c-285 0 -365 3
-366 13 0 6 0 258 0 560 l0 547 -192 0 -192 0 -1 -720z"/>
<path d="M7345 3800 l0 -720 600 2 600 3 0 158 0 157 -412 0 -412 0 -3 23 c-2
12 -2 66 0 119 l3 98 412 2 412 3 0 153 1 152 -416 0 -415 0 2 62 c1 35 2 91
2 125 l1 63 412 2 413 3 0 158 0 157 -600 0 -600 0 0 -720z"/>
</g>
</svg>
